/vscmnt/brussel_pixiu_data/_data_brussel/112/vsc11236/PredSimResults/SUBJ06opt3D/trackIG/worker_11.mot
version=1
nRows=11
nColumns=50
inDegrees=yes
endheader
                time	         pelvis_tilt	         pelvis_list	     pelvis_rotation	           pelvis_tx	           pelvis_ty	           pelvis_tz	       hip_flexion_r	     hip_adduction_r	      hip_rotation_r	        knee_angle_r	       ankle_angle_r	         mtp_angle_r	       hip_flexion_l	     hip_adduction_l	      hip_rotation_l	        knee_angle_l	       ankle_angle_l	         mtp_angle_l	    lumbar_extension	      lumbar_bending	     lumbar_rotation	 ercspn_r/activation	 intobl_r/activation	 extobl_r/activation	    abd_r/activation	    add_r/activation	hamstrings_r/activation	bifemsh_r/activation	glut_max_r/activation	iliopsoas_r/activation	rect_fem_r/activation	  vasti_r/activation	gastroc_r/activation	 soleus_r/activation	tib_ant_r/activation	 ercspn_l/activation	 intobl_l/activation	 extobl_l/activation	    abd_l/activation	    add_l/activation	hamstrings_l/activation	bifemsh_l/activation	glut_max_l/activation	iliopsoas_l/activation	rect_fem_l/activation	  vasti_l/activation	gastroc_l/activation	 soleus_l/activation	tib_ant_l/activation	
          0.50924412	         -8.56571442	          2.58517526	         -8.87348183	          0.81479059	          0.91745700	          0.00884235	        -11.16206401	         -3.14049037	         -1.37881006	        -12.12482155	          2.77524295	         42.36740416	         35.72955068	         -1.45471293	         -9.55396706	         -6.22912350	          2.36851413	          0.29313643	        -10.21537900	         -2.10720782	          7.96976347	          0.19010464	          0.00999999	          0.00999999	          0.02996718	          0.14748817	          0.05372393	          0.40903557	          0.02190086	          0.33275313	          0.02031055	          0.01872272	          0.36476781	          0.30710994	          0.01608778	          0.22517289	          0.13400074	          0.00999999	          0.00999999	          0.34088434	          0.16468628	          0.18514894	          0.00999999	          0.16771187	          0.00999999	          0.00999999	          0.01872272	          0.00999999	          0.72323072	
          0.51942900	         -8.50875084	          2.53929717	         -8.91442266	          0.83494198	          0.91505357	          0.00825457	        -12.12050016	         -3.32202260	         -1.76255313	        -12.52689244	          1.12757886	         44.15908263	         36.07730937	         -1.35093702	         -9.64951649	         -8.81032717	          1.79988528	          0.28865629	         -9.86453186	         -2.30260528	          8.40244999	          0.24024181	          0.00999999	          0.00999999	          0.02561849	          0.35385228	          0.06103652	          0.39415400	          0.01872272	          0.57585241	          0.01736318	          0.01600577	          0.31183451	          0.26254367	          0.01375320	          0.19249692	          0.11455522	          0.00999999	          0.00999999	          0.51897493	          0.14495214	          0.15828104	          0.24990053	          0.14337436	          0.00999999	          0.00999999	          0.01600577	          0.01368309	          0.77308459	
          0.52961388	         -8.43574923	          2.53491661	         -8.91957215	          0.85526192	          0.91272109	          0.00765100	        -12.76085417	         -3.55240544	         -2.16888163	        -13.54895823	         -0.47475458	         45.77539735	         36.25813064	         -1.30596609	         -9.51656221	        -11.46998946	          1.42268812	          0.22124993	         -9.50704799	         -2.54926120	          8.77835630	          0.21672225	          0.00999999	          0.00999999	          0.02190086	          0.30250299	          0.05217920	          0.33974560	          0.01600577	          0.71604259	          0.01484352	          0.01368309	          0.26658263	          0.22444463	          0.01175740	          0.16829815	          0.09793153	          0.00999999	          0.13627097	          0.48915595	          0.13038787	          0.13531208	          0.25813754	          0.12256858	          0.00999999	          0.00999999	          0.01368309	          0.01169747	          0.86485023	
          0.53979876	         -8.35186845	          2.53783926	         -8.88158608	          0.87544660	          0.91063544	          0.00691182	        -12.97221097	         -3.80774566	         -2.57466882	        -15.34285125	         -2.04894569	         47.11931456	         36.36706265	         -1.23756873	         -9.39987059	        -14.01876129	          1.07971782	          0.18920636	         -9.18666632	         -2.79659875	          9.09586443	          0.25195917	          0.00999999	          0.00999999	          0.01872272	          0.25860525	          0.04460721	          0.29044340	          0.01368309	          0.72534456	          0.01268950	          0.01169747	          0.22789748	          0.19187434	          0.01005123	          0.19992351	          0.08372019	          0.00999999	          0.21009369	          0.51905646	          0.11394199	          0.11567626	          0.41364117	          0.10478204	          0.00999999	          0.00999999	          0.01169747	          0.00999999	          0.91950542	
          0.54998365	         -8.25807705	          2.55188869	         -8.80569374	          0.89528467	          0.90895689	          0.00604722	        -12.70449473	         -4.10085261	         -2.97708883	        -17.96657469	         -3.54429285	         47.86992469	         36.51027836	         -1.13645346	         -9.25832358	        -16.62312632	          0.89250154	          0.12670735	         -8.92374811	         -3.05193142	          9.35224631	          0.31662380	          0.00999999	          0.00999999	          0.01600577	          0.22107774	          0.03813404	          0.24829569	          0.01169747	          0.62008615	          0.01084807	          0.00999999	          0.19482613	          0.16403048	          0.00999999	          0.21177473	          0.07157113	          0.00999999	          0.26925618	          0.49243156	          0.09740729	          0.09888990	          0.50549009	          0.08957659	          0.00999999	          0.08670953	          0.00999999	          0.00999999	          0.94687128	
          0.56016853	         -8.15745101	          2.58609409	         -8.69154539	          0.91467935	          0.90787076	          0.00507590	        -11.95893535	         -4.44719284	         -3.37764771	        -21.36908727	         -5.04578884	         47.82990413	         36.67648756	         -0.98568086	         -9.06765380	        -19.30880474	          1.23559257	          0.06489449	         -8.71928636	         -3.32459493	          9.54168610	          0.35589514	          0.00999999	          0.00999999	          0.01368309	          0.21179844	          0.03260021	          0.21226425	          0.00999999	          0.53010232	          0.00999999	          0.00999999	          0.16655393	          0.14022719	          0.00999999	          0.20841601	          0.06118509	          0.00999999	          0.32195543	          0.49092683	          0.08815925	          0.08453949	          0.43213587	          0.07657768	          0.00999999	          0.20392067	          0.00999999	          0.00999999	          0.82990681	
          0.57035341	         -8.05739887	          2.63099437	         -8.53889902	          0.93361298	          0.90752232	          0.00402449	        -10.77589981	         -4.83810647	         -3.77403467	        -25.37635355	         -6.80485587	         47.03306193	         36.72655723	         -0.77101828	         -8.82196026	        -21.81418250	          2.13103584	          0.06513144	         -8.56517597	         -3.60113180	          9.66518162	          0.38720650	          0.00999999	          0.00999999	          0.01169747	          0.26790303	          0.02786943	          0.18146152	          0.00999999	          0.45317650	          0.00999999	          0.00999999	          0.14238445	          0.11987812	          0.00999999	          0.17817171	          0.05230621	          0.00999999	          0.36241677	          0.46762496	          0.08272809	          0.07227153	          0.36942646	          0.06546510	          0.00999999	          0.35450900	          0.00999999	          0.00999999	          0.70947484	
          0.58053829	         -7.96684080	          2.66471271	         -8.34442493	          0.95203613	          0.90805008	          0.00292418	         -9.20028024	         -5.24803444	         -4.16433544	        -29.81923186	         -8.86328798	         45.21159066	         36.50091201	         -0.49996314	         -8.55576847	        -23.82679136	          3.47567278	          0.25755138	         -8.46168818	         -3.85515996	          9.72525704	          0.37061355	          0.00999999	          0.00999999	          0.00999999	          0.27095323	          0.03505405	          0.15512872	          0.00999999	          0.38741377	          0.00999999	          0.00999999	          0.12172232	          0.10248200	          0.08015896	          0.15231631	          0.04471579	          0.00999999	          0.38711431	          0.40829172	          0.08086000	          0.06178385	          0.31581712	          0.05596513	          0.00999999	          0.40687273	          0.00999999	          0.00999999	          0.60651937	
          0.59072318	         -7.89222390	          2.68589214	         -8.11692240	          0.96985018	          0.90944394	          0.00181830	         -7.28584632	         -5.67144904	         -4.51784741	        -34.59097364	        -10.82305985	         41.80296067	         35.98144125	         -0.18417054	         -8.27616457	        -25.24474183	          4.94291768	          0.65602838	         -8.41444048	         -4.08737244	          9.73014327	          0.37437184	          0.04379941	          0.00999999	          0.00999999	          0.23163384	          0.02996718	          0.13261721	          0.01169747	          0.33119421	          0.00999999	          0.00999999	          0.10405858	          0.08761032	          0.27798139	          0.13021292	          0.03822686	          0.00999999	          0.38816681	          0.34904245	          0.09020162	          0.05281808	          0.26998731	          0.04784375	          0.00999999	          0.45802747	          0.00999999	          0.00999999	          0.51850428	
          0.60090806	         -7.83577202	          2.69128844	         -7.85639172	          0.98702608	          0.91158021	          0.00073990	         -5.14856466	         -6.06666975	         -4.78816407	        -39.46094977	        -12.09629968	         36.94706139	         35.19400782	          0.15931949	         -7.98637213	        -26.04933777	          6.19496719	          1.15564198	         -8.42484654	         -4.29321560	          9.67511350	          0.36706699	          0.05252568	          0.00999999	          0.01169747	          0.19802029	          0.02561849	          0.12169654	          0.00999999	          0.28313294	          0.00999999	          0.00999999	          0.08895812	          0.07489674	          0.26828662	          0.11131707	          0.03267956	          0.00999999	          0.37342398	          0.29839114	          0.09395075	          0.04515338	          0.23080809	          0.04090090	          0.00999999	          0.48127071	          0.00999999	          0.00999999	          0.44326151	
          0.61109294	         -7.79786612	          2.67776982	         -7.55956774	          1.00359531	          0.91436356	         -0.00027552	         -2.90434348	         -6.37578847	         -4.97072059	        -44.13612573	        -12.01972310	         32.41862605	         34.18781063	          0.51319884	         -7.68198949	        -26.32529425	          7.19747789	          1.68609739	         -8.48971838	         -4.47005823	          9.55563189	          0.34626820	          0.04756911	          0.01000000	          0.00999999	          0.16928456	          0.02190086	          0.13034746	          0.00999999	          0.24204609	          0.00999999	          0.00999999	          0.07604895	          0.06402810	          0.32731245	          0.09516329	          0.02793727	          0.00999999	          0.33630343	          0.25509010	          0.09994858	          0.03860095	          0.19731436	          0.03496556	          0.00999999	          0.44733956	          0.00999999	          0.00999999	          0.37893760	
